# xmcd CD database file
#
# Track frame offsets:
#	150
#	38905
#	60895
#	91975
#	124980
#	152627
#	174517
#	214290
#	240512
#	269665
#	300782
#
# Disc length: 4304 seconds
#
# Revision: 1
# Processed by: cddbd v1.4PL0 Copyright (c) Steve Scherf et al.
# Submitted via: CDex 1.50Beta7
#
DISCID=8b10ce0b
DTITLE=Sharin - Land of Dreams - 4 - New Energy
DYEAR=1900
DGENRE=New Age
TTITLE0=Musical Mission
TTITLE1=Seaside
TTITLE2=Peace of Mind
TTITLE3=Spiritual Journey
TTITLE4=Morning Memory
TTITLE5=Born Again
TTITLE6=Joy
TTITLE7=Peaceful Paradise
TTITLE8=Grateful Me
TTITLE9=New Energy
TTITLE10=Oriental Power
EXTD=
EXTT0=
EXTT1=
EXTT2=
EXTT3=
EXTT4=
EXTT5=
EXTT6=
EXTT7=
EXTT8=
EXTT9=
EXTT10=
PLAYORDER=
